<?xml version="1.0" encoding="utf-8"?>
<!-- Generator: Adobe Illustrator 26.3.1, SVG Export Plug-In . SVG Version: 6.00 Build 0)  -->
<svg version="1.1" xmlns="http://www.w3.org/2000/svg" xmlns:xlink="http://www.w3.org/1999/xlink" x="0px" y="0px"
	 viewBox="0 0 4000 4000" style="enable-background:new 0 0 4000 4000;" xml:space="preserve">
<style type="text/css">
	.st0{fill:none;stroke:#1D1D1B;stroke-width:2;stroke-miterlimit:10;}
	.st1{fill:#FFFFFF;stroke:#1D1D1B;stroke-width:2;stroke-miterlimit:10;}
	.st2{fill:#1D1D1B;stroke:#1D1D1B;stroke-width:2;stroke-miterlimit:10;}
</style>
<g id="Calque_1">
	<circle class="st0" cx="5709" cy="3848.6" r="486.7"/>
	<path class="st1" d="M5019.6,4123.2c-13.5-62-20.6-126.9-20.6-193.6C5002.9,3974.4,5009.3,4041.5,5019.6,4123.2z"/>
	<path class="st1" d="M5719.3,1412.1c0,66.7-7.1,131.6-20.6,193.6C5709,1524,5715.5,1456.9,5719.3,1412.1z"/>
	<path class="st2" d="M5709,3122.9c-392.1,0-710,361.2-710,806.7c3.9,44.8,10.3,111.9,20.6,193.6c1.9,15,3.9,30.5,6.1,46.4
		c20,146.9,85.8,581.8,385.8,1391.9c68,183.8,166.2,435.6,297.6,732.2c131.4-296.6,229.5-548.4,297.6-732.2
		c299.9-810.1,365.8-1245,385.8-1391.9c2.2-15.9,4.2-31.4,6.1-46.4c10.3-81.7,16.7-148.8,20.6-193.6
		C6419,3484.1,6101.1,3122.9,5709,3122.9z M5709,4335.3c-268.8,0-486.7-217.9-486.7-486.7s217.9-486.7,486.7-486.7
		c268.8,0,486.7,217.9,486.7,486.7S5977.8,4335.3,5709,4335.3z"/>
	<circle class="st2" cx="5709" cy="3848.6" r="230"/>
</g>
<g id="Calque_2">
	<path class="st2" d="M1877.2,806c-544.3,0-985.5,441.2-985.5,985.5c0,544.3,441.2,985.5,985.5,985.5
		c544.3,0,985.5-441.2,985.5-985.5C2862.8,1247.2,2421.5,806,1877.2,806z M1877.2,2548.2c-417.9,0-756.8-338.8-756.8-756.8
		s338.8-756.8,756.8-756.8s756.8,338.8,756.8,756.8S2295.2,2548.2,1877.2,2548.2z"/>
	<path class="st2" d="M2344,1791.5c0,257.8-209,466.8-466.7,466.8s-466.7-209-466.7-466.8c0-257.8,209-466.7,466.7-466.7
		S2344,1533.7,2344,1791.5z"/>
</g>
</svg>
